<svg width="177" height="42" viewBox="0 0 177 42" fill="none" xmlns="http://www.w3.org/2000/svg">
<g clip-path="url(#clip0_32_2)">
<path d="M31.9583 6.25245L18.6444 2.68498C17.4856 2.3745 16.2982 3.03209 15.9987 4.15013L8.46184 32.2779C8.16224 33.396 8.86181 34.5592 10.0205 34.8696L23.3345 38.4371C24.4932 38.7476 25.6806 38.09 25.9802 36.972L33.517 8.84416C33.8166 7.72612 33.1176 6.56308 31.9583 6.25245ZM23.5519 37.6258L10.2379 34.0583C9.61116 33.8904 9.21245 33.3064 9.27144 32.7007C9.4214 33.3497 9.92276 33.9049 10.6285 34.094L23.1958 37.4614C23.9016 37.6505 24.6135 37.4198 25.0677 36.9333C24.8158 37.4873 24.1786 37.7937 23.5519 37.6258ZM23.5465 5.60904C23.5525 5.66745 23.5959 5.71619 23.6537 5.73166L25.9432 6.34513C26.0048 6.36165 26.0696 6.3373 26.1028 6.28525L26.2758 6.01393C26.2864 5.99705 26.2817 5.9784 26.2844 5.95942L31.2776 7.29735C32.128 7.52521 32.6405 8.3774 32.4207 9.19796L25.2079 36.1163C24.988 36.9369 24.1181 37.4186 23.2677 37.1908L10.7009 33.8235C9.85054 33.5957 9.33802 32.7435 9.55789 31.9229L16.7705 5.00512C16.9904 4.18456 17.8603 3.7028 18.7107 3.93066L23.5278 5.2214C23.5201 5.24134 23.507 5.25875 23.5099 5.28153L23.5465 5.60904ZM23.8014 5.29471L26.0135 5.88744L25.9113 6.04674L23.8226 5.48707L23.8014 5.29471ZM31.3505 7.02761L18.7832 3.66021C18.0774 3.4711 17.3654 3.70182 16.9113 4.18828C17.1629 3.63477 17.8003 3.32786 18.427 3.4958L31.741 7.06326C32.3677 7.23118 32.7664 7.81516 32.7075 8.42087C32.5575 7.77252 32.0563 7.21673 31.3505 7.02761Z" fill="#62A5F3"/>
<path d="M17.0897 5.96435L10.803 29.4267C10.773 29.5387 10.8428 29.6548 10.9588 29.6859L24.9388 33.4318C25.0549 33.4629 25.1734 33.3973 25.2034 33.2853L31.4901 9.82294C31.5201 9.711 31.4503 9.59487 31.3343 9.56376L17.3543 5.81783C17.2382 5.78673 17.1197 5.85235 17.0897 5.96435ZM17.4558 6.27986L31.0153 9.91313L24.8373 32.9698L11.2778 29.3366L17.4558 6.27986Z" fill="#62A5F3"/>
<path d="M18.1048 32.8692L17.2987 32.6532C16.9119 32.5495 16.5167 32.7688 16.4168 33.1416L16.3533 33.3785C16.2535 33.7511 16.4861 34.1387 16.8729 34.2424L17.679 34.4584C18.0653 34.5619 18.4611 34.3426 18.5609 33.97L18.6244 33.7331C18.7244 33.3599 18.4911 32.9727 18.1048 32.8692ZM18.2808 33.8944C18.2209 34.1178 17.9831 34.2494 17.7516 34.1874L16.9455 33.9714C16.714 33.9094 16.5739 33.6764 16.6337 33.4531L16.6972 33.2162C16.7571 32.9928 16.9949 32.8611 17.2264 32.9231L18.0325 33.1391C18.264 33.2012 18.4041 33.4341 18.3442 33.6575L18.2808 33.8944Z" fill="#62A5F3"/>
<path d="M28.0068 7.77877C28.2325 7.83925 28.4628 7.71173 28.5211 7.49395C28.5795 7.27616 28.4438 7.05059 28.2181 6.99012C27.9924 6.92964 27.7621 7.05716 27.7038 7.27494C27.6454 7.49272 27.7811 7.71829 28.0068 7.77877Z" fill="#62A5F3"/>
<path d="M22.0529 34.5758L21.7721 34.5005L21.7993 34.3988L21.4515 34.4859L21.709 34.7358L21.7357 34.6363L22.0166 34.7115C22.3652 34.8049 22.503 34.8581 22.4618 35.0117C22.4186 35.1729 22.3466 35.1617 22.1246 35.1022L21.7624 35.0052C21.7238 34.9948 21.6843 35.0166 21.6743 35.054C21.6643 35.0913 21.6875 35.13 21.7262 35.1403L22.0883 35.2374C22.2812 35.2891 22.5206 35.3532 22.602 35.0492C22.6835 34.7452 22.3623 34.6587 22.0529 34.5758Z" fill="#62A5F3"/>
<path d="M13.3849 31.9848L12.7015 31.8017C12.6628 31.7913 12.6233 31.8132 12.6134 31.8505L12.4412 32.4931C12.4312 32.5305 12.4544 32.5691 12.4931 32.5795L13.1765 32.7626C13.2152 32.773 13.2547 32.7511 13.2647 32.7138L13.4368 32.0712C13.4468 32.0339 13.4236 31.9952 13.3849 31.9848ZM13.1428 32.6081L12.5996 32.4625L12.6721 32.1921L12.9176 32.2579L12.9811 32.021L13.2788 32.1007L13.1428 32.6081Z" fill="#62A5F3"/>
</g>
<path d="M60.8409 22.2727C60.8409 24.1136 60.5085 25.7045 59.8438 27.0455C59.179 28.3864 58.267 29.4205 57.108 30.1477C55.9489 30.875 54.625 31.2386 53.1364 31.2386C51.6477 31.2386 50.3239 30.875 49.1648 30.1477C48.0057 29.4205 47.0938 28.3864 46.429 27.0455C45.7642 25.7045 45.4318 24.1136 45.4318 22.2727C45.4318 20.4318 45.7642 18.8409 46.429 17.5C47.0938 16.1591 48.0057 15.125 49.1648 14.3977C50.3239 13.6705 51.6477 13.3068 53.1364 13.3068C54.625 13.3068 55.9489 13.6705 57.108 14.3977C58.267 15.125 59.179 16.1591 59.8438 17.5C60.5085 18.8409 60.8409 20.4318 60.8409 22.2727ZM58.7955 22.2727C58.7955 20.7614 58.5426 19.4858 58.0369 18.446C57.5369 17.4062 56.858 16.6193 56 16.0852C55.1477 15.5511 54.1932 15.2841 53.1364 15.2841C52.0795 15.2841 51.1222 15.5511 50.2642 16.0852C49.4119 16.6193 48.733 17.4062 48.2273 18.446C47.7273 19.4858 47.4773 20.7614 47.4773 22.2727C47.4773 23.7841 47.7273 25.0597 48.2273 26.0994C48.733 27.1392 49.4119 27.9261 50.2642 28.4602C51.1222 28.9943 52.0795 29.2614 53.1364 29.2614C54.1932 29.2614 55.1477 28.9943 56 28.4602C56.858 27.9261 57.5369 27.1392 58.0369 26.0994C58.5426 25.0597 58.7955 23.7841 58.7955 22.2727ZM64.1222 31V17.9091H66.0653V19.9545H66.2358C66.5085 19.2557 66.9489 18.7131 67.5568 18.3267C68.1648 17.9347 68.8949 17.7386 69.7472 17.7386C70.6108 17.7386 71.3295 17.9347 71.9034 18.3267C72.483 18.7131 72.9347 19.2557 73.2585 19.9545H73.3949C73.7301 19.2784 74.233 18.7415 74.9034 18.3438C75.5739 17.9403 76.3778 17.7386 77.3153 17.7386C78.4858 17.7386 79.4432 18.1051 80.1875 18.8381C80.9318 19.5653 81.304 20.6989 81.304 22.2386V31H79.2926V22.2386C79.2926 21.2727 79.0284 20.5824 78.5 20.1676C77.9716 19.7528 77.3494 19.5455 76.6335 19.5455C75.7131 19.5455 75 19.8239 74.4943 20.3807C73.9886 20.9318 73.7358 21.6307 73.7358 22.4773V31H71.6903V22.0341C71.6903 21.2898 71.4489 20.6903 70.9659 20.2358C70.483 19.7756 69.8608 19.5455 69.0994 19.5455C68.5767 19.5455 68.0881 19.6847 67.6335 19.9631C67.1847 20.2415 66.821 20.6278 66.5426 21.1222C66.2699 21.6108 66.1335 22.1761 66.1335 22.8182V31H64.1222ZM90.2656 36.1818C89.294 36.1818 88.4588 36.0568 87.7599 35.8068C87.0611 35.5625 86.4787 35.2386 86.0128 34.8352C85.5526 34.4375 85.1861 34.0114 84.9134 33.5568L86.5156 32.4318C86.6974 32.6705 86.9276 32.9432 87.206 33.25C87.4844 33.5625 87.8651 33.8324 88.348 34.0597C88.8366 34.2926 89.4759 34.4091 90.2656 34.4091C91.3224 34.4091 92.1946 34.1534 92.8821 33.642C93.5696 33.1307 93.9134 32.3295 93.9134 31.2386V28.5795H93.7429C93.5952 28.8182 93.3849 29.1136 93.1122 29.4659C92.8452 29.8125 92.4588 30.1222 91.9531 30.3949C91.4531 30.6619 90.777 30.7955 89.9247 30.7955C88.8679 30.7955 87.919 30.5455 87.0781 30.0455C86.2429 29.5455 85.581 28.8182 85.0923 27.8636C84.6094 26.9091 84.3679 25.75 84.3679 24.3864C84.3679 23.0455 84.6037 21.8778 85.0753 20.8835C85.5469 19.8835 86.2031 19.1108 87.044 18.5653C87.8849 18.0142 88.8565 17.7386 89.9588 17.7386C90.8111 17.7386 91.4872 17.8807 91.9872 18.1648C92.4929 18.4432 92.8793 18.7614 93.1463 19.1193C93.419 19.4716 93.6293 19.7614 93.777 19.9886H93.9815V17.9091H95.9247V31.375C95.9247 32.5 95.669 33.4148 95.1577 34.1193C94.652 34.8295 93.9702 35.3494 93.1122 35.679C92.2599 36.0142 91.3111 36.1818 90.2656 36.1818ZM90.1974 28.9886C91.0043 28.9886 91.6861 28.804 92.2429 28.4347C92.7997 28.0653 93.223 27.5341 93.5128 26.8409C93.8026 26.1477 93.9474 25.3182 93.9474 24.3523C93.9474 23.4091 93.8054 22.5767 93.5213 21.8551C93.2372 21.1335 92.8168 20.5682 92.2599 20.1591C91.7031 19.75 91.0156 19.5455 90.1974 19.5455C89.3452 19.5455 88.6349 19.7614 88.0668 20.1932C87.5043 20.625 87.081 21.2045 86.7969 21.9318C86.5185 22.6591 86.3793 23.4659 86.3793 24.3523C86.3793 25.2614 86.5213 26.0653 86.8054 26.7642C87.0952 27.4574 87.5213 28.0028 88.0838 28.4006C88.652 28.7926 89.3565 28.9886 90.1974 28.9886ZM99.8793 31V13.5455H105.777C107.146 13.5455 108.266 13.7926 109.135 14.2869C110.01 14.7756 110.658 15.4375 111.078 16.2727C111.499 17.108 111.709 18.0398 111.709 19.0682C111.709 20.0966 111.499 21.0312 111.078 21.8722C110.663 22.7131 110.021 23.3835 109.152 23.8835C108.283 24.3778 107.169 24.625 105.811 24.625H101.584V22.75H105.743C106.68 22.75 107.433 22.5881 108.001 22.2642C108.57 21.9403 108.982 21.5028 109.237 20.9517C109.499 20.3949 109.629 19.767 109.629 19.0682C109.629 18.3693 109.499 17.7443 109.237 17.1932C108.982 16.642 108.567 16.2102 107.993 15.8977C107.419 15.5795 106.658 15.4205 105.709 15.4205H101.993V31H99.8793ZM116.852 23.125V31H114.841V13.5455H116.852V19.9545H117.023C117.33 19.2784 117.79 18.7415 118.403 18.3438C119.023 17.9403 119.847 17.7386 120.875 17.7386C121.767 17.7386 122.548 17.9176 123.219 18.2756C123.889 18.6278 124.409 19.1705 124.778 19.9034C125.153 20.6307 125.341 21.5568 125.341 22.6818V31H123.33V22.8182C123.33 21.7784 123.06 20.9744 122.52 20.4062C121.986 19.8324 121.244 19.5455 120.295 19.5455C119.636 19.5455 119.045 19.6847 118.523 19.9631C118.006 20.2415 117.597 20.6477 117.295 21.1818C117 21.7159 116.852 22.3636 116.852 23.125ZM134.339 31.2727C133.157 31.2727 132.12 30.9915 131.228 30.429C130.342 29.8665 129.648 29.0795 129.148 28.0682C128.654 27.0568 128.407 25.875 128.407 24.5227C128.407 23.1591 128.654 21.9687 129.148 20.9517C129.648 19.9347 130.342 19.1449 131.228 18.5824C132.12 18.0199 133.157 17.7386 134.339 17.7386C135.521 17.7386 136.555 18.0199 137.441 18.5824C138.333 19.1449 139.026 19.9347 139.521 20.9517C140.021 21.9687 140.271 23.1591 140.271 24.5227C140.271 25.875 140.021 27.0568 139.521 28.0682C139.026 29.0795 138.333 29.8665 137.441 30.429C136.555 30.9915 135.521 31.2727 134.339 31.2727ZM134.339 29.4659C135.237 29.4659 135.975 29.2358 136.555 28.7756C137.134 28.3153 137.563 27.7102 137.842 26.9602C138.12 26.2102 138.259 25.3977 138.259 24.5227C138.259 23.6477 138.12 22.8324 137.842 22.0767C137.563 21.321 137.134 20.7102 136.555 20.2443C135.975 19.7784 135.237 19.5455 134.339 19.5455C133.441 19.5455 132.702 19.7784 132.123 20.2443C131.543 20.7102 131.114 21.321 130.836 22.0767C130.558 22.8324 130.418 23.6477 130.418 24.5227C130.418 25.3977 130.558 26.2102 130.836 26.9602C131.114 27.7102 131.543 28.3153 132.123 28.7756C132.702 29.2358 133.441 29.4659 134.339 29.4659ZM145.352 23.125V31H143.341V17.9091H145.284V19.9545H145.455C145.761 19.2898 146.227 18.7557 146.852 18.3523C147.477 17.9432 148.284 17.7386 149.273 17.7386C150.159 17.7386 150.935 17.9205 151.599 18.2841C152.264 18.642 152.781 19.1875 153.151 19.9205C153.52 20.6477 153.705 21.5682 153.705 22.6818V31H151.693V22.8182C151.693 21.7898 151.426 20.9886 150.892 20.4148C150.358 19.8352 149.625 19.5455 148.693 19.5455C148.051 19.5455 147.477 19.6847 146.972 19.9631C146.472 20.2415 146.077 20.6477 145.787 21.1818C145.497 21.7159 145.352 22.3636 145.352 23.125ZM162.869 31.2727C161.607 31.2727 160.519 30.9943 159.604 30.4375C158.695 29.875 157.994 29.0909 157.499 28.0852C157.011 27.0739 156.766 25.8977 156.766 24.5568C156.766 23.2159 157.011 22.0341 157.499 21.0114C157.994 19.983 158.681 19.1818 159.562 18.608C160.448 18.0284 161.482 17.7386 162.664 17.7386C163.346 17.7386 164.019 17.8523 164.684 18.0795C165.349 18.3068 165.954 18.6761 166.499 19.1875C167.045 19.6932 167.479 20.3636 167.803 21.1989C168.127 22.0341 168.289 23.0625 168.289 24.2841V25.1364H158.198V23.3977H166.244C166.244 22.6591 166.096 22 165.8 21.4205C165.511 20.8409 165.096 20.3835 164.556 20.0483C164.022 19.7131 163.391 19.5455 162.664 19.5455C161.863 19.5455 161.17 19.7443 160.585 20.142C160.005 20.5341 159.559 21.0455 159.246 21.6761C158.934 22.3068 158.778 22.983 158.778 23.7045V24.8636C158.778 25.8523 158.948 26.6903 159.289 27.3778C159.636 28.0597 160.116 28.5795 160.729 28.9375C161.343 29.2898 162.056 29.4659 162.869 29.4659C163.397 29.4659 163.874 29.392 164.3 29.2443C164.732 29.0909 165.104 28.8636 165.417 28.5625C165.729 28.2557 165.971 27.875 166.141 27.4205L168.085 27.9659C167.88 28.625 167.536 29.2045 167.053 29.7045C166.57 30.1989 165.974 30.5852 165.263 30.8636C164.553 31.1364 163.755 31.2727 162.869 31.2727ZM174.008 13.5455L173.837 26.0909H171.86L171.69 13.5455H174.008ZM172.849 31.1364C172.428 31.1364 172.067 30.9858 171.766 30.6847C171.465 30.3835 171.315 30.0227 171.315 29.6023C171.315 29.1818 171.465 28.821 171.766 28.5199C172.067 28.2187 172.428 28.0682 172.849 28.0682C173.269 28.0682 173.63 28.2187 173.931 28.5199C174.232 28.821 174.383 29.1818 174.383 29.6023C174.383 29.8807 174.312 30.1364 174.17 30.3693C174.033 30.6023 173.849 30.7898 173.616 30.9318C173.388 31.0682 173.133 31.1364 172.849 31.1364Z" fill="white"/>
<defs>
<clipPath id="clip0_32_2">
<rect width="34.5317" height="33.3201" fill="white" transform="translate(8.62384) rotate(15)"/>
</clipPath>
</defs>
</svg>
